<svg width="16" height="16" viewBox="0 0 367 367" fill="none" xmlns="http://www.w3.org/2000/svg">
<path d="M367 183.516C366.981 193.632 366.132 203.73 364.463 213.708C347.779 313.615 253.224 381.153 153.284 364.468C53.3443 347.784 -14.1581 253.251 2.53518 153.294C19.2285 53.3362 113.774 -14.1514 213.714 2.53319C223.927 4.23821 233.979 6.79818 243.763 10.1861C220.851 11.0536 198.599 18.1017 179.364 30.5841C160.13 43.0664 144.629 60.5183 134.502 81.0918C124.376 101.665 120.001 124.595 121.841 147.452C123.681 170.309 131.668 192.243 144.955 210.931C158.242 229.619 176.336 244.366 197.319 253.61C218.303 262.854 241.396 266.251 264.152 263.442C286.909 260.632 308.482 251.72 326.587 237.65C344.693 223.58 358.656 204.875 367 183.516Z" fill="#894EF6"/>
<path d="M177.983 98.3592C175.718 100.849 172.769 102.61 169.507 103.42C166.246 104.231 162.818 104.054 159.656 102.912C156.495 101.771 153.741 99.7157 151.743 97.0062C149.745 94.2966 148.591 91.0542 148.428 87.6878C148.265 84.3215 149.1 80.9821 150.827 78.091C152.554 75.1999 155.096 72.8867 158.132 71.4431C161.168 69.9995 164.563 69.4902 167.887 69.9796C171.212 70.469 174.318 71.935 176.812 74.1928C178.477 75.699 179.828 77.5204 180.788 79.5521C181.748 81.5839 182.299 83.786 182.407 86.0318C182.516 88.2777 182.181 90.5229 181.422 92.6385C180.663 94.754 179.494 96.6982 177.983 98.3592ZM206.309 48.0091C208.577 45.5036 211.534 43.7288 214.807 42.909C218.081 42.0892 221.523 42.2613 224.699 43.4035C227.874 44.5457 230.641 46.6067 232.649 49.3259C234.657 52.0452 235.816 55.3005 235.98 58.6805C236.144 62.0604 235.304 65.4131 233.569 68.3147C231.833 71.2163 229.278 73.5365 226.228 74.982C223.177 76.4275 219.768 76.9334 216.431 76.4356C213.094 75.9379 209.979 74.4589 207.48 72.1856C204.13 69.1345 202.124 64.8739 201.905 60.3404C201.685 55.8069 203.269 51.3715 206.309 48.0091ZM183.036 135.793C181.74 137.225 180.051 138.24 178.18 138.709C176.309 139.177 174.342 139.079 172.528 138.426C170.713 137.773 169.132 136.595 167.985 135.04C166.838 133.486 166.176 131.625 166.084 129.694C165.991 127.762 166.472 125.846 167.466 124.189C168.459 122.532 169.92 121.207 171.664 120.383C173.408 119.558 175.357 119.271 177.264 119.558C179.17 119.845 180.949 120.693 182.376 121.994C184.285 123.738 185.425 126.171 185.547 128.758C185.669 131.346 184.762 133.876 183.026 135.793H183.036ZM101.6 66.7863C104.099 69.0595 107.214 70.5385 110.551 71.0363C113.888 71.5341 117.297 71.0282 120.347 69.5827C123.398 68.1373 125.952 65.817 127.688 62.9154C129.424 60.0138 130.263 56.6611 130.1 53.2811C129.936 49.9012 128.777 46.6458 126.769 43.9266C124.761 41.2074 121.994 39.1464 118.818 38.0042C115.643 36.862 112.2 36.6899 108.927 37.5097C105.654 38.3295 102.697 40.1043 100.429 42.6098C97.388 45.9709 95.8021 50.4055 96.0198 54.939C96.2374 59.4725 98.2408 63.7338 101.59 66.7863H101.6Z" fill="#4EF6EC"/>
<g clip-path="url(#clip0_64_350)">
<path d="M311.249 282.23L298.643 255.846C298.643 255.775 298.558 255.703 298.529 255.632L304.875 254.375C305.832 254.176 306.761 253.947 307.733 253.662C308.705 253.376 309.577 253.048 310.463 252.677C310.977 252.462 311.492 252.234 311.992 251.977H312.092L312.849 251.549L313.221 251.349L313.407 251.249C317.312 249.02 320.633 245.899 323.097 242.14C323.482 241.583 323.868 241.027 324.24 240.441C324.612 239.856 324.955 239.27 325.298 238.671C326.678 236.207 327.817 233.616 328.699 230.933C329.156 229.576 329.542 228.177 329.871 226.764C330.515 223.979 330.898 221.14 331.014 218.283C330.876 214.411 330.124 210.584 328.785 206.947C328.084 205.046 327.179 203.227 326.084 201.522C325.566 200.715 325.003 199.938 324.397 199.195C322.665 197.066 320.546 195.283 318.152 193.941C317.373 193.515 316.566 193.143 315.736 192.827C314.902 192.508 314.048 192.245 313.178 192.042C312.47 191.883 311.755 191.759 311.034 191.671C310.305 191.6 309.605 191.557 308.833 191.557C307.416 191.559 306.002 191.713 304.617 192.014C302.721 192.428 300.886 193.085 299.158 193.97C297.349 194.886 295.652 196.007 294.099 197.31C291.979 199.105 290.088 201.152 288.468 203.407L256.254 209.788C253.125 210.392 250.124 211.527 247.379 213.144C246.461 213.69 245.574 214.286 244.72 214.928C243.388 215.798 242.131 216.777 240.962 217.855C240.376 218.398 239.804 218.954 239.275 219.54C238.746 220.125 238.218 220.753 237.732 221.381L237.031 222.295C233.318 219.447 229.278 217.05 224.998 215.157C223.797 214.614 222.597 214.1 221.382 213.6L219.552 212.887C215.894 211.459 212.178 210.274 208.519 209.089C206.461 208.418 204.432 207.761 202.445 207.076C200.459 206.391 198.501 205.648 196.586 204.934C193.716 203.825 190.927 202.518 188.239 201.022C187.353 200.523 186.467 200.009 185.609 199.452C184.162 198.518 182.653 197.683 181.093 196.954C180.322 196.597 179.55 196.254 178.778 195.954C177.259 195.373 175.703 194.896 174.119 194.526C172.68 194.189 171.218 193.955 169.746 193.827C169.881 191.378 169.881 188.923 169.746 186.474C169.082 172.903 164.405 159.833 156.307 148.916C148.208 137.999 137.052 129.726 124.248 125.142C111.443 120.558 97.566 119.869 84.3698 123.162C71.1736 126.455 59.251 133.582 50.1089 143.643C49.1943 144.643 48.3368 145.685 47.4792 146.727C47.2506 146.97 47.0076 147.213 46.7789 147.47C34.9449 160.492 28.5922 177.571 29.042 195.153C29.4919 212.735 36.7098 229.467 49.1943 241.869C50.6551 245.556 52.7818 248.944 55.4684 251.863C57.2506 253.825 59.2555 255.574 61.4423 257.074L65.787 274.406C66.8239 278.575 68.7495 282.471 71.4323 285.828C71.9611 286.484 72.5042 287.127 73.0901 287.741C74.8299 289.58 76.7881 291.201 78.9212 292.566C79.6358 293.009 80.3504 293.437 81.1221 293.837C85.7944 296.304 91.001 297.588 96.2857 297.578C97.8394 297.579 99.3913 297.474 100.931 297.264C101.702 297.164 102.488 297.035 103.26 296.878C104.032 296.721 104.818 296.535 105.59 296.335H105.661L112.364 294.28L122.368 291.196C124.933 293.553 127.82 295.534 130.943 297.078C154.382 308.671 181.908 314.781 205.246 317.237C214.921 318.249 224.698 316.912 233.744 313.339C242.634 309.642 246.421 300.976 250.166 292.324C250.166 292.167 250.294 292.01 250.366 291.853C251.099 291.3 251.8 290.715 252.467 290.096L264.3 314.81C266.531 319.503 270.023 323.485 274.386 326.314C278.748 329.142 283.811 330.705 289.011 330.829C290.44 330.957 291.869 331.029 293.298 331.029C296.03 331.027 298.756 330.783 301.445 330.3C309.268 328.99 316.545 325.444 322.396 320.092C328.442 314.31 331.171 306.986 329.914 300.005C328.399 291.538 321.382 284.943 311.249 282.23Z" fill="#2D1CA5"/>
<path d="M306.032 288.911L291.74 259.101C291.423 258.424 291.065 257.766 290.669 257.131L276.777 259.886L259.098 282.801C258.855 283.129 258.483 283.558 258.069 284.043L271.232 311.526C272.886 314.981 275.474 317.906 278.704 319.97C281.934 322.033 285.677 323.154 289.511 323.205C293.038 323.574 296.6 323.435 300.087 322.791C314.093 320.264 324.097 310.684 322.411 301.375C321.253 294.865 314.65 290.254 306.032 288.911Z" fill="#0797FF"/>
<path d="M130.472 253.185C124.279 256.597 117.577 259.037 110.601 260.404C100.792 262.325 90.6812 262.075 80.9792 259.672C77.899 261.442 74.2527 261.954 70.8035 261.1L73.6618 272.521C76.6488 284.485 89.2685 292.738 103.946 288.826L143.963 276.562C144.35 276.443 144.731 276.324 145.108 276.207C146.682 275.717 148.181 275.251 149.68 274.906C151.814 274.39 154.054 274.524 156.111 275.291C157.912 275.991 167.745 279.574 170.675 280.431C172.844 281.103 174.892 281.741 176.839 282.348C191.678 286.968 200.693 289.776 213.035 292.338C221.04 293.895 229.317 293.259 236.989 290.496C241.354 289.028 245.327 286.587 248.608 283.358C249.322 282.615 252.467 279.189 253.267 278.132L272.732 252.905L303.688 246.78C305.087 246.506 306.452 246.085 307.762 245.524C308.364 245.278 308.951 244.997 309.519 244.681L309.82 244.424C312.715 242.786 315.167 240.468 316.965 237.671C319.658 233.831 321.566 229.499 322.582 224.922C325.841 211.073 320.981 198.124 311.778 195.997C305.146 194.469 298.072 198.995 293.441 206.847L258.04 213.843C254.919 214.462 251.983 215.796 249.465 217.741C247.419 219.025 245.618 220.664 244.149 222.58L220.696 252.99C220.281 253.547 219.881 254.104 219.524 254.689L218.295 253.804C220.811 248.387 228.777 234.803 232.266 228.855C232.74 228.046 233.132 227.379 233.416 226.892C233.562 226.651 233.617 226.365 233.57 226.087C233.523 225.809 233.376 225.558 233.158 225.379C225.496 219.103 216.068 216.039 206.393 212.896C198.022 210.175 189.465 207.395 181.708 202.421C178.189 200.016 174.15 198.528 169.956 198.06C169.3 203.991 167.875 209.845 165.69 215.473C160.615 228.543 151.681 239.779 140.062 247.702C137.003 249.789 133.795 251.619 130.472 253.185Z" fill="#0797FF"/>
<path d="M214.608 249.85C215.537 247.508 216.566 244.938 217.552 242.497C218.538 240.056 219.681 237.172 220.624 234.859C223.483 226.493 220.867 217.227 214.022 212.415C207.176 207.604 195.156 205.277 193.27 205.12C192.584 205.12 191.841 205.02 191.212 205.02C187.71 204.973 184.269 205.931 181.297 207.781C178.325 209.631 175.948 212.295 174.448 215.456C172.747 220.096 170.975 225.051 169.16 230.205C165.115 241.783 170.675 254.761 181.579 259.158C183.466 259.929 185.338 260.672 187.124 261.371C189.555 262.307 192.137 262.791 194.742 262.799C198.955 262.804 203.078 261.581 206.606 259.281C210.135 256.981 212.915 253.704 214.608 249.85Z" fill="#2D1CA5"/>
<path d="M214.065 229.462C212.135 234.102 209.191 241.54 207.247 246.423C205.898 249.631 203.361 252.194 200.165 253.578C196.97 254.961 193.363 255.058 190.097 253.847C188.282 253.133 186.453 252.42 184.638 251.663C177.72 248.893 174.219 240.241 176.806 232.874C178.749 227.378 180.679 221.981 182.608 216.727C183.351 214.408 184.885 212.423 186.944 211.118C189.002 209.813 191.453 209.272 193.87 209.589C195.828 209.788 205.69 211.859 210.792 215.442C215.265 218.726 216.037 224.836 214.065 229.462Z" fill="#4EF6EC"/>
<path d="M143.191 227.292C130.577 235.219 116.385 240.306 101.602 242.197L98.744 242.568C97.8707 242.678 96.9872 242.468 96.2569 241.977C95.5266 241.486 94.9988 240.748 94.7709 239.899L94.0134 237.115C92.2971 231.753 89.2009 226.935 85.0348 223.144C80.8687 219.353 75.7788 216.722 70.2747 215.514L67.4164 215.028C66.5487 214.877 65.7645 214.419 65.208 213.737C64.6514 213.055 64.3597 212.196 64.3865 211.316L64.4723 208.461C64.941 193.61 68.6375 179.039 75.3054 165.758C83.6661 149.14 96.1 136.062 110.578 128.281C110.883 128.122 111.127 127.867 111.275 127.556C111.422 127.245 111.465 126.895 111.395 126.558C111.326 126.221 111.149 125.916 110.89 125.688C110.632 125.461 110.306 125.324 109.963 125.297C98.1297 124.148 86.2156 126.436 75.6523 131.886C65.089 137.337 56.3258 145.718 50.4154 156.023C44.505 166.329 41.6988 178.12 42.3341 189.98C42.9693 201.84 47.0189 213.264 53.9964 222.881C53.8875 223.025 53.8283 223.201 53.8274 223.382C53.8266 223.563 53.8841 223.74 53.9916 223.886C54.0991 224.032 54.2507 224.139 54.424 224.192C54.5974 224.245 54.7832 224.241 54.9539 224.18C61.3138 221.881 70.3605 224.251 77.8208 231.033C84.9667 237.557 88.2109 246.081 86.9818 252.548C86.9389 252.77 86.9717 253 87.0748 253.202C87.178 253.403 87.3456 253.564 87.5511 253.66C87.7565 253.755 87.988 253.779 88.2086 253.727C88.4292 253.676 88.6262 253.552 88.7683 253.376C89.7259 252.22 90.9407 251.063 91.841 250.035C92.0697 249.793 92.2698 249.55 92.4699 249.293C92.8877 248.759 93.4399 248.345 94.0702 248.094C94.7005 247.844 95.3862 247.764 96.0571 247.865C108.161 249.453 120.465 247.422 131.416 242.03C142.366 236.639 151.472 228.127 157.583 217.569C157.639 217.461 157.656 217.336 157.63 217.216C157.604 217.096 157.537 216.989 157.441 216.913C157.345 216.837 157.225 216.797 157.102 216.8C156.98 216.802 156.862 216.847 156.769 216.927C152.566 220.785 148.021 224.254 143.191 227.292Z" fill="#0797FF"/>
<path d="M145.592 140.959C140.238 136.119 134.075 132.253 127.385 129.538C126.932 129.344 126.425 129.318 125.956 129.466C108.348 134.52 91.8839 148.298 81.4938 168.928C75.8364 180.196 72.4702 192.473 71.5895 205.049C71.5224 206.008 71.7806 206.962 72.3225 207.757C72.8643 208.552 73.6583 209.142 74.5765 209.432C80.1838 211.161 85.3402 214.105 89.6781 218.054C94.016 222.002 97.4287 226.858 99.6729 232.275C100.004 233.157 100.63 233.898 101.446 234.371C102.261 234.845 103.215 235.022 104.146 234.873C116.689 232.811 128.691 228.262 139.447 221.496C149.535 215.255 158.17 206.931 164.772 197.082C164.946 196.82 165.058 196.522 165.101 196.211C166.69 186.108 165.739 175.768 162.333 166.123C158.928 156.479 153.175 147.831 145.592 140.959Z" fill="#4EF6EC"/>
</g>
<defs>
<clipPath id="clip0_64_350">
<rect width="302" height="210" fill="white" transform="translate(29 121)"/>
</clipPath>
</defs>
</svg>
